<?xml version="1.0" encoding="UTF-8"?>
<svg xmlns="http://www.w3.org/2000/svg"
     xmlns:xlink="http://www.w3.org/1999/xlink"
     xmlns:gadfly="http://www.gadflyjl.org/ns"
     version="1.2"
     width="152.4mm" height="101.6mm" viewBox="0 0 152.4 101.6"
     stroke="none"
     fill="#000000"
     stroke-width="0.3"
     font-size="3.88"
>
<g class="plotroot xscalable yscalable" id="img-3ecbf3f5-1">
  <g font-size="3.88" font-family="'PT Sans','Helvetica Neue','Helvetica',sans-serif" fill="#564A55" stroke="#000000" stroke-opacity="0.000" id="img-3ecbf3f5-2">
    <text x="83.52" y="89.99" text-anchor="middle" dy="0.6em">iter</text>
  </g>
  <g class="guide xlabels" font-size="2.82" font-family="'PT Sans Caption','Helvetica Neue','Helvetica',sans-serif" fill="#6C606B" id="img-3ecbf3f5-3">
    <text x="21.63" y="83.32" text-anchor="middle" dy="0.6em">0</text>
    <text x="83.52" y="83.32" text-anchor="middle" dy="0.6em">50</text>
    <text x="145.4" y="83.32" text-anchor="middle" dy="0.6em">100</text>
  </g>
<g clip-path="url(#img-3ecbf3f5-4)">
  <g id="img-3ecbf3f5-5">
    <g pointer-events="visible" opacity="1" fill="#000000" fill-opacity="0.000" stroke="#000000" stroke-opacity="0.000" class="guide background" id="img-3ecbf3f5-6">
      <rect x="19.63" y="5" width="127.77" height="77.32"/>
    </g>
    <g class="guide ygridlines xfixed" stroke-dasharray="0.5,0.5" stroke-width="0.2" stroke="#D0D0E0" id="img-3ecbf3f5-7">
      <path fill="none" d="M19.63,80.32 L 147.4 80.32"/>
      <path fill="none" d="M19.63,61.99 L 147.4 61.99"/>
      <path fill="none" d="M19.63,43.66 L 147.4 43.66"/>
      <path fill="none" d="M19.63,25.33 L 147.4 25.33"/>
      <path fill="none" d="M19.63,7 L 147.4 7"/>
    </g>
    <g class="guide xgridlines yfixed" stroke-dasharray="0.5,0.5" stroke-width="0.2" stroke="#D0D0E0" id="img-3ecbf3f5-8">
      <path fill="none" d="M21.63,5 L 21.63 82.32"/>
      <path fill="none" d="M83.52,5 L 83.52 82.32"/>
      <path fill="none" d="M145.4,5 L 145.4 82.32"/>
    </g>
    <g class="plotpanel" id="img-3ecbf3f5-9">
      <g stroke-width="0.3" fill="#000000" fill-opacity="0.000" class="geometry" stroke-dasharray="none" stroke="#0000FF" id="img-3ecbf3f5-10">
        <path fill="none" d="M22.87,63.51 L 24.11 76.64 25.34 77.91 26.58 77.98 27.82 78.6 29.06 78.85 30.3 79.59 31.53 79.93 32.77 79.99 34.01 80.07 35.25 80.16 36.48 80.11 37.72 80.1 38.96 80.24 40.2 80.27 41.43 80.29 42.67 80.29 43.91 80.3 45.15 80.3 46.39 80.31 47.62 80.3 48.86 80.31 50.1 80.31 51.34 80.31 52.57 80.31 53.81 80.31 55.05 80.31 56.29 80.31 57.52 80.31 58.76 80.31 60 80.31 61.24 80.31 62.48 80.31 63.71 80.31 64.95 80.31 66.19 80.31 67.43 80.31 68.66 80.31 69.9 80.31 71.14 80.31 72.38 80.31 73.61 80.31 74.85 80.31 76.09 80.31 77.33 80.31 78.57 80.31 79.8 80.31 81.04 80.31 82.28 80.31 83.52 80.31 84.75 80.31 85.99 80.31 87.23 80.31 88.47 80.31 89.7 80.31 90.94 80.31 92.18 80.31 93.42 80.31 94.65 80.31 95.89 80.31 97.13 80.31 98.37 80.31 99.61 80.31 100.84 80.31 102.08 80.31 103.32 80.31 104.56 80.31 105.79 80.31 107.03 80.31 108.27 80.31 109.51 80.31 110.74 80.31 111.98 80.31 113.22 80.31 114.46 80.31 115.7 80.31 116.93 80.31 118.17 80.31 119.41 80.31 120.65 80.31 121.88 80.31 123.12 80.31 124.36 80.31 125.6 80.31 126.83 80.31 128.07 80.31 129.31 80.31 130.55 80.31 131.79 80.31 133.02 80.31 134.26 80.31 135.5 80.31 136.74 80.31 137.97 80.31 139.21 80.31 140.45 80.31 141.69 80.31 142.92 80.31 144.16 80.31"/>
      </g>
      <g stroke-width="0.3" fill="#000000" fill-opacity="0.000" class="geometry" stroke-dasharray="none" stroke="#FF0000" id="img-3ecbf3f5-11">
        <path fill="none" d="M22.87,16.79 L 24.11 59.65 25.34 62.72 26.58 65.05 27.82 65.77 29.06 66.73 30.3 67.18 31.53 67.36 32.77 67.43 34.01 67.49 35.25 67.54 36.48 67.56 37.72 67.57 38.96 67.58 40.2 67.58 41.43 67.58 42.67 67.58 43.91 67.58 45.15 67.58 46.39 67.58 47.62 67.58 48.86 67.58 50.1 67.58 51.34 67.58 52.57 67.58 53.81 67.58 55.05 67.58 56.29 67.58 57.52 67.58 58.76 67.58 60 67.58 61.24 67.58 62.48 67.58 63.71 67.58 64.95 67.58 66.19 67.58 67.43 67.58 68.66 67.58 69.9 67.58 71.14 67.58 72.38 67.58 73.61 67.58 74.85 67.58 76.09 67.58 77.33 67.58 78.57 67.58 79.8 67.58 81.04 67.58 82.28 67.58 83.52 67.58 84.75 67.58 85.99 67.58 87.23 67.58 88.47 67.58 89.7 67.58 90.94 67.58 92.18 67.58 93.42 67.58 94.65 67.58 95.89 67.58 97.13 67.58 98.37 67.58 99.61 67.58 100.84 67.58 102.08 67.58 103.32 67.58 104.56 67.58 105.79 67.58 107.03 67.58 108.27 67.58 109.51 67.58 110.74 67.58 111.98 67.58 113.22 67.58 114.46 67.58 115.7 67.58 116.93 67.58 118.17 67.58 119.41 67.58 120.65 67.58 121.88 67.58 123.12 67.58 124.36 67.58 125.6 67.58 126.83 67.58 128.07 67.58 129.31 67.58 130.55 67.58 131.79 67.58 133.02 67.58 134.26 67.58 135.5 67.58 136.74 67.58 137.97 67.58 139.21 67.58 140.45 67.58 141.69 67.58 142.92 67.58 144.16 67.58"/>
      </g>
    </g>
  </g>
</g>
  <g class="guide ylabels" font-size="2.82" font-family="'PT Sans Caption','Helvetica Neue','Helvetica',sans-serif" fill="#6C606B" id="img-3ecbf3f5-12">
    <text x="18.63" y="80.32" text-anchor="end" dy="0.35em">0</text>
    <text x="18.63" y="61.99" text-anchor="end" dy="0.35em">200</text>
    <text x="18.63" y="43.66" text-anchor="end" dy="0.35em">400</text>
    <text x="18.63" y="25.33" text-anchor="end" dy="0.35em">600</text>
    <text x="18.63" y="7" text-anchor="end" dy="0.35em">800</text>
  </g>
  <g font-size="3.88" font-family="'PT Sans','Helvetica Neue','Helvetica',sans-serif" fill="#564A55" stroke="#000000" stroke-opacity="0.000" id="img-3ecbf3f5-13">
    <text x="8.81" y="41.66" text-anchor="middle" dy="0.35em" transform="rotate(-90, 8.81, 43.66)">obj</text>
  </g>
</g>
<defs>
  <clipPath id="img-3ecbf3f5-4">
  <path d="M19.63,5 L 147.4 5 147.4 82.32 19.63 82.32" />
</clipPath>
</defs>
</svg>
