<?xml version="1.0" encoding="UTF-8"?>
<svg xmlns="http://www.w3.org/2000/svg"
     xmlns:xlink="http://www.w3.org/1999/xlink"
     xmlns:gadfly="http://www.gadflyjl.org/ns"
     version="1.2"
     width="152.4mm" height="101.6mm" viewBox="0 0 152.4 101.6"
     stroke="none"
     fill="#000000"
     stroke-width="0.3"
     font-size="3.88"
>
<g class="plotroot xscalable yscalable" id="img-7bb1c52c-1">
  <g font-size="3.88" font-family="'PT Sans','Helvetica Neue','Helvetica',sans-serif" fill="#564A55" stroke="#000000" stroke-opacity="0.000" id="img-7bb1c52c-2">
    <text x="83.52" y="89.99" text-anchor="middle" dy="0.6em">iter</text>
  </g>
  <g class="guide xlabels" font-size="2.82" font-family="'PT Sans Caption','Helvetica Neue','Helvetica',sans-serif" fill="#6C606B" id="img-7bb1c52c-3">
    <text x="21.63" y="83.32" text-anchor="middle" dy="0.6em">0.0</text>
    <text x="52.57" y="83.32" text-anchor="middle" dy="0.6em">2.5</text>
    <text x="83.52" y="83.32" text-anchor="middle" dy="0.6em">5.0</text>
    <text x="114.46" y="83.32" text-anchor="middle" dy="0.6em">7.5</text>
    <text x="145.4" y="83.32" text-anchor="middle" dy="0.6em">10.0</text>
  </g>
<g clip-path="url(#img-7bb1c52c-4)">
  <g id="img-7bb1c52c-5">
    <g pointer-events="visible" opacity="1" fill="#000000" fill-opacity="0.000" stroke="#000000" stroke-opacity="0.000" class="guide background" id="img-7bb1c52c-6">
      <rect x="19.63" y="5" width="127.77" height="77.32"/>
    </g>
    <g class="guide ygridlines xfixed" stroke-dasharray="0.5,0.5" stroke-width="0.2" stroke="#D0D0E0" id="img-7bb1c52c-7">
      <path fill="none" d="M19.63,80.32 L 147.4 80.32"/>
      <path fill="none" d="M19.63,61.99 L 147.4 61.99"/>
      <path fill="none" d="M19.63,43.66 L 147.4 43.66"/>
      <path fill="none" d="M19.63,25.33 L 147.4 25.33"/>
      <path fill="none" d="M19.63,7 L 147.4 7"/>
    </g>
    <g class="guide xgridlines yfixed" stroke-dasharray="0.5,0.5" stroke-width="0.2" stroke="#D0D0E0" id="img-7bb1c52c-8">
      <path fill="none" d="M21.63,5 L 21.63 82.32"/>
      <path fill="none" d="M52.57,5 L 52.57 82.32"/>
      <path fill="none" d="M83.52,5 L 83.52 82.32"/>
      <path fill="none" d="M114.46,5 L 114.46 82.32"/>
      <path fill="none" d="M145.4,5 L 145.4 82.32"/>
    </g>
    <g class="plotpanel" id="img-7bb1c52c-9">
      <g stroke-width="0.3" fill="#000000" fill-opacity="0.000" class="geometry" stroke-dasharray="none" stroke="#0000FF" id="img-7bb1c52c-10">
        <path fill="none" d="M34.01,63.51 L 46.39 78.4 58.76 79.98 71.14 79.92 83.52 80.13 95.89 80.31 108.27 80.31 120.65 80.31 133.02 80.31 145.4 80.31"/>
      </g>
      <g stroke-width="0.3" fill="#000000" fill-opacity="0.000" class="geometry" stroke-dasharray="none" stroke="#FF0000" id="img-7bb1c52c-11">
        <path fill="none" d="M34.01,16.79 L 46.39 40.38 58.76 76.43 71.14 77.5 83.52 79.74 95.89 80.31 108.27 80.31 120.65 80.31 133.02 80.31 145.4 80.31"/>
      </g>
    </g>
  </g>
</g>
  <g class="guide ylabels" font-size="2.82" font-family="'PT Sans Caption','Helvetica Neue','Helvetica',sans-serif" fill="#6C606B" id="img-7bb1c52c-12">
    <text x="18.63" y="80.32" text-anchor="end" dy="0.35em">0</text>
    <text x="18.63" y="61.99" text-anchor="end" dy="0.35em">200</text>
    <text x="18.63" y="43.66" text-anchor="end" dy="0.35em">400</text>
    <text x="18.63" y="25.33" text-anchor="end" dy="0.35em">600</text>
    <text x="18.63" y="7" text-anchor="end" dy="0.35em">800</text>
  </g>
  <g font-size="3.88" font-family="'PT Sans','Helvetica Neue','Helvetica',sans-serif" fill="#564A55" stroke="#000000" stroke-opacity="0.000" id="img-7bb1c52c-13">
    <text x="8.81" y="41.66" text-anchor="middle" dy="0.35em" transform="rotate(-90, 8.81, 43.66)">obj</text>
  </g>
</g>
<defs>
  <clipPath id="img-7bb1c52c-4">
  <path d="M19.63,5 L 147.4 5 147.4 82.32 19.63 82.32" />
</clipPath>
</defs>
</svg>
