<?xml version="1.0" encoding="UTF-8"?>
<svg xmlns="http://www.w3.org/2000/svg"
     xmlns:xlink="http://www.w3.org/1999/xlink"
     xmlns:gadfly="http://www.gadflyjl.org/ns"
     version="1.2"
     width="152.4mm" height="101.6mm" viewBox="0 0 152.4 101.6"
     stroke="none"
     fill="#000000"
     stroke-width="0.3"
     font-size="3.88"
>
<g class="plotroot xscalable yscalable" id="img-635a5b6c-1">
  <g font-size="3.88" font-family="'PT Sans','Helvetica Neue','Helvetica',sans-serif" fill="#564A55" stroke="#000000" stroke-opacity="0.000" id="img-635a5b6c-2">
    <text x="83.52" y="89.99" text-anchor="middle" dy="0.6em">iter</text>
  </g>
  <g class="guide xlabels" font-size="2.82" font-family="'PT Sans Caption','Helvetica Neue','Helvetica',sans-serif" fill="#6C606B" id="img-635a5b6c-3">
    <text x="21.63" y="83.32" text-anchor="middle" dy="0.6em">0</text>
    <text x="83.52" y="83.32" text-anchor="middle" dy="0.6em">50</text>
    <text x="145.4" y="83.32" text-anchor="middle" dy="0.6em">100</text>
  </g>
<g clip-path="url(#img-635a5b6c-4)">
  <g id="img-635a5b6c-5">
    <g pointer-events="visible" opacity="1" fill="#000000" fill-opacity="0.000" stroke="#000000" stroke-opacity="0.000" class="guide background" id="img-635a5b6c-6">
      <rect x="19.63" y="5" width="127.77" height="77.32"/>
    </g>
    <g class="guide ygridlines xfixed" stroke-dasharray="0.5,0.5" stroke-width="0.2" stroke="#D0D0E0" id="img-635a5b6c-7">
      <path fill="none" d="M19.63,80.32 L 147.4 80.32"/>
      <path fill="none" d="M19.63,61.99 L 147.4 61.99"/>
      <path fill="none" d="M19.63,43.66 L 147.4 43.66"/>
      <path fill="none" d="M19.63,25.33 L 147.4 25.33"/>
      <path fill="none" d="M19.63,7 L 147.4 7"/>
    </g>
    <g class="guide xgridlines yfixed" stroke-dasharray="0.5,0.5" stroke-width="0.2" stroke="#D0D0E0" id="img-635a5b6c-8">
      <path fill="none" d="M21.63,5 L 21.63 82.32"/>
      <path fill="none" d="M83.52,5 L 83.52 82.32"/>
      <path fill="none" d="M145.4,5 L 145.4 82.32"/>
    </g>
    <g class="plotpanel" id="img-635a5b6c-9">
      <g stroke-width="0.3" fill="#000000" fill-opacity="0.000" class="geometry" stroke-dasharray="none" stroke="#0000FF" id="img-635a5b6c-10">
        <path fill="none" d="M22.87,63.51 L 24.11 78.39 25.34 78.98 26.58 79.74 27.82 79.72 29.06 80.03 30.3 80.15 31.53 80.25 32.77 80.24 34.01 80.28 35.25 80.3 36.48 80.31 37.72 80.31 38.96 80.31 40.2 80.31 41.43 80.31 42.67 80.31 43.91 80.31 45.15 80.31 46.39 80.31 47.62 80.31 48.86 80.31 50.1 80.31 51.34 80.31 52.57 80.31 53.81 80.31 55.05 80.31 56.29 80.31 57.52 80.31 58.76 80.31 60 80.31 61.24 80.31 62.48 80.31 63.71 80.31 64.95 80.31 66.19 80.31 67.43 80.31 68.66 80.31 69.9 80.31 71.14 80.31 72.38 80.31 73.61 80.31 74.85 80.31 76.09 80.31 77.33 80.31 78.57 80.31 79.8 80.31 81.04 80.31 82.28 80.31 83.52 80.31 84.75 80.31 85.99 80.31 87.23 80.31 88.47 80.31 89.7 80.31 90.94 80.31 92.18 80.31 93.42 80.31 94.65 80.31 95.89 80.31 97.13 80.31 98.37 80.31 99.61 80.31 100.84 80.31 102.08 80.31 103.32 80.31 104.56 80.31 105.79 80.31 107.03 80.31 108.27 80.31 109.51 80.31 110.74 80.31 111.98 80.31 113.22 80.31 114.46 80.31 115.7 80.31 116.93 80.31 118.17 80.31 119.41 80.31 120.65 80.31 121.88 80.31 123.12 80.31 124.36 80.31 125.6 80.31 126.83 80.31 128.07 80.31 129.31 80.31 130.55 80.31 131.79 80.31 133.02 80.31 134.26 80.31 135.5 80.31 136.74 80.31 137.97 80.31 139.21 80.31 140.45 80.31 141.69 80.31 142.92 80.31 144.16 80.31 145.4 80.31"/>
      </g>
      <g stroke-width="0.3" fill="#000000" fill-opacity="0.000" class="geometry" stroke-dasharray="none" stroke="#FF0000" id="img-635a5b6c-11">
        <path fill="none" d="M22.87,16.79 L 24.11 58.92 25.34 69.45 26.58 76.59 27.82 77.87 29.06 79.35 30.3 80.02 31.53 80.17 32.77 80.2 34.01 80.25 35.25 80.28 36.48 80.29 37.72 80.29 38.96 80.29 40.2 80.3 41.43 80.3 42.67 80.3 43.91 80.3 45.15 80.3 46.39 80.31 47.62 80.31 48.86 80.31 50.1 80.31 51.34 80.31 52.57 80.31 53.81 80.31 55.05 80.31 56.29 80.31 57.52 80.31 58.76 80.31 60 80.31 61.24 80.31 62.48 80.31 63.71 80.31 64.95 80.31 66.19 80.31 67.43 80.31 68.66 80.31 69.9 80.31 71.14 80.31 72.38 80.31 73.61 80.31 74.85 80.31 76.09 80.31 77.33 80.31 78.57 80.31 79.8 80.31 81.04 80.31 82.28 80.31 83.52 80.31 84.75 80.31 85.99 80.31 87.23 80.31 88.47 80.31 89.7 80.31 90.94 80.31 92.18 80.31 93.42 80.31 94.65 80.31 95.89 80.31 97.13 80.31 98.37 80.31 99.61 80.31 100.84 80.31 102.08 80.31 103.32 80.31 104.56 80.31 105.79 80.31 107.03 80.31 108.27 80.31 109.51 80.31 110.74 80.31 111.98 80.31 113.22 80.31 114.46 80.31 115.7 80.31 116.93 80.31 118.17 80.31 119.41 80.31 120.65 80.31 121.88 80.31 123.12 80.31 124.36 80.31 125.6 80.31 126.83 80.31 128.07 80.31 129.31 80.31 130.55 80.31 131.79 80.31 133.02 80.31 134.26 80.31 135.5 80.31 136.74 80.31 137.97 80.31 139.21 80.31 140.45 80.31 141.69 80.31 142.92 80.31 144.16 80.31 145.4 80.31"/>
      </g>
    </g>
  </g>
</g>
  <g class="guide ylabels" font-size="2.82" font-family="'PT Sans Caption','Helvetica Neue','Helvetica',sans-serif" fill="#6C606B" id="img-635a5b6c-12">
    <text x="18.63" y="80.32" text-anchor="end" dy="0.35em">0</text>
    <text x="18.63" y="61.99" text-anchor="end" dy="0.35em">200</text>
    <text x="18.63" y="43.66" text-anchor="end" dy="0.35em">400</text>
    <text x="18.63" y="25.33" text-anchor="end" dy="0.35em">600</text>
    <text x="18.63" y="7" text-anchor="end" dy="0.35em">800</text>
  </g>
  <g font-size="3.88" font-family="'PT Sans','Helvetica Neue','Helvetica',sans-serif" fill="#564A55" stroke="#000000" stroke-opacity="0.000" id="img-635a5b6c-13">
    <text x="8.81" y="41.66" text-anchor="middle" dy="0.35em" transform="rotate(-90, 8.81, 43.66)">obj</text>
  </g>
</g>
<defs>
  <clipPath id="img-635a5b6c-4">
  <path d="M19.63,5 L 147.4 5 147.4 82.32 19.63 82.32" />
</clipPath>
</defs>
</svg>
