<?xml version="1.0" encoding="UTF-8"?>
<svg xmlns="http://www.w3.org/2000/svg"
     xmlns:xlink="http://www.w3.org/1999/xlink"
     xmlns:gadfly="http://www.gadflyjl.org/ns"
     version="1.2"
     width="152.4mm" height="101.6mm" viewBox="0 0 152.4 101.6"
     stroke="none"
     fill="#000000"
     stroke-width="0.3"
     font-size="3.88"
>
<g class="plotroot xscalable yscalable" id="img-4c460e9b-1">
  <g font-size="3.88" font-family="'PT Sans','Helvetica Neue','Helvetica',sans-serif" fill="#564A55" stroke="#000000" stroke-opacity="0.000" id="img-4c460e9b-2">
    <text x="83.52" y="89.99" text-anchor="middle" dy="0.6em">iter</text>
  </g>
  <g class="guide xlabels" font-size="2.82" font-family="'PT Sans Caption','Helvetica Neue','Helvetica',sans-serif" fill="#6C606B" id="img-4c460e9b-3">
    <text x="21.63" y="83.32" text-anchor="middle" dy="0.6em">0</text>
    <text x="83.52" y="83.32" text-anchor="middle" dy="0.6em">50</text>
    <text x="145.4" y="83.32" text-anchor="middle" dy="0.6em">100</text>
  </g>
<g clip-path="url(#img-4c460e9b-4)">
  <g id="img-4c460e9b-5">
    <g pointer-events="visible" opacity="1" fill="#000000" fill-opacity="0.000" stroke="#000000" stroke-opacity="0.000" class="guide background" id="img-4c460e9b-6">
      <rect x="19.63" y="5" width="127.77" height="77.32"/>
    </g>
    <g class="guide ygridlines xfixed" stroke-dasharray="0.5,0.5" stroke-width="0.2" stroke="#D0D0E0" id="img-4c460e9b-7">
      <path fill="none" d="M19.63,80.32 L 147.4 80.32"/>
      <path fill="none" d="M19.63,61.99 L 147.4 61.99"/>
      <path fill="none" d="M19.63,43.66 L 147.4 43.66"/>
      <path fill="none" d="M19.63,25.33 L 147.4 25.33"/>
      <path fill="none" d="M19.63,7 L 147.4 7"/>
    </g>
    <g class="guide xgridlines yfixed" stroke-dasharray="0.5,0.5" stroke-width="0.2" stroke="#D0D0E0" id="img-4c460e9b-8">
      <path fill="none" d="M21.63,5 L 21.63 82.32"/>
      <path fill="none" d="M83.52,5 L 83.52 82.32"/>
      <path fill="none" d="M145.4,5 L 145.4 82.32"/>
    </g>
    <g class="plotpanel" id="img-4c460e9b-9">
      <g stroke-width="0.3" fill="#000000" fill-opacity="0.000" class="geometry" stroke-dasharray="none" stroke="#008000" id="img-4c460e9b-10">
        <path fill="none" d="M22.87,16.79 L 24.11 16.81 25.34 16.82 26.58 16.83 27.82 16.84 29.06 16.85 30.3 16.85 31.53 16.86 32.77 16.86 34.01 16.87 35.25 16.87 36.48 16.87 37.72 16.87 38.96 16.88 40.2 16.88 41.43 16.88 42.67 16.88 43.91 16.88 45.15 16.88 46.39 16.88 47.62 16.88 48.86 16.88 50.1 16.88 51.34 16.88 52.57 16.88 53.81 16.88 55.05 16.88 56.29 16.88 57.52 16.88 58.76 16.88 60 16.88 61.24 16.88 62.48 16.88 63.71 16.88 64.95 16.88 66.19 16.88 67.43 16.88 68.66 16.88 69.9 16.88 71.14 16.88 72.38 16.88 73.61 16.88 74.85 16.88 76.09 16.88 77.33 16.88 78.57 16.88 79.8 16.88 81.04 16.88 82.28 16.88 83.52 16.88 84.75 16.88 85.99 16.88 87.23 16.88 88.47 16.88 89.7 16.88 90.94 16.88 92.18 16.88 93.42 16.88 94.65 16.88 95.89 16.88 97.13 16.88 98.37 16.88 99.61 16.88 100.84 16.88 102.08 16.88 103.32 16.88 104.56 16.88 105.79 16.88 107.03 16.88 108.27 16.88 109.51 16.88 110.74 16.88 111.98 16.88 113.22 16.88 114.46 16.88 115.7 16.88 116.93 16.88 118.17 16.88 119.41 16.88 120.65 16.88 121.88 16.88 123.12 16.88 124.36 16.88 125.6 16.88 126.83 16.88 128.07 16.88 129.31 16.88 130.55 16.88 131.79 16.88 133.02 16.88 134.26 16.88 135.5 16.88 136.74 16.88 137.97 16.88 139.21 16.88 140.45 16.88 141.69 16.88 142.92 16.88 144.16 16.88 145.4 16.88"/>
      </g>
      <g stroke-width="0.3" fill="#000000" fill-opacity="0.000" class="geometry" stroke-dasharray="none" stroke="#FFA500" id="img-4c460e9b-11">
        <path fill="none" d="M22.87,16.79 L 24.11 17.41 25.34 17.6 26.58 17.66 27.82 17.69 29.06 17.69 30.3 17.69 31.53 17.7 32.77 17.7 34.01 17.7 35.25 17.7 36.48 17.7 37.72 17.7 38.96 17.7 40.2 17.7 41.43 17.7 42.67 17.7 43.91 17.7 45.15 17.7 46.39 17.7 47.62 17.7 48.86 17.7 50.1 17.7 51.34 17.7 52.57 17.7 53.81 17.7 55.05 17.7 56.29 17.7 57.52 17.7 58.76 17.7 60 17.7 61.24 17.7 62.48 17.7 63.71 17.7 64.95 17.7 66.19 17.7 67.43 17.7 68.66 17.7 69.9 17.7 71.14 17.7 72.38 17.7 73.61 17.7 74.85 17.7 76.09 17.7 77.33 17.7 78.57 17.7 79.8 17.7 81.04 17.7 82.28 17.7 83.52 17.7 84.75 17.7 85.99 17.7 87.23 17.7 88.47 17.7 89.7 17.7 90.94 17.7 92.18 17.7 93.42 17.7 94.65 17.7 95.89 17.7 97.13 17.7 98.37 17.7 99.61 17.7 100.84 17.7 102.08 17.7 103.32 17.7 104.56 17.7 105.79 17.7 107.03 17.7 108.27 17.7 109.51 17.7 110.74 17.7 111.98 17.7 113.22 17.7 114.46 17.7 115.7 17.7 116.93 17.7 118.17 17.7 119.41 17.7 120.65 17.7 121.88 17.7 123.12 17.7 124.36 17.7 125.6 17.7 126.83 17.7 128.07 17.7 129.31 17.7 130.55 17.7 131.79 17.7 133.02 17.7 134.26 17.7 135.5 17.7 136.74 17.7 137.97 17.7 139.21 17.7 140.45 17.7 141.69 17.7 142.92 17.7 144.16 17.7 145.4 17.7"/>
      </g>
      <g stroke-width="0.3" fill="#000000" fill-opacity="0.000" class="geometry" stroke-dasharray="none" stroke="#0000FF" id="img-4c460e9b-12">
        <path fill="none" d="M22.87,16.79 L 24.11 37.08 25.34 44.48 26.58 58.19 27.82 63.86 29.06 65.9 30.3 65.92 31.53 66.88 32.77 67.35 34.01 67.48 35.25 67.53 36.48 67.56 37.72 67.57 38.96 67.57 40.2 67.58 41.43 67.58 42.67 67.58 43.91 67.58 45.15 67.58 46.39 67.58 47.62 67.58 48.86 67.58 50.1 67.58 51.34 67.58 52.57 67.58 53.81 67.58 55.05 67.58 56.29 67.58 57.52 67.58 58.76 67.58 60 67.58 61.24 67.58 62.48 67.58 63.71 67.58 64.95 67.58 66.19 67.58 67.43 67.58 68.66 67.58 69.9 67.58 71.14 67.58 72.38 67.58 73.61 67.58 74.85 67.58 76.09 67.58 77.33 67.58 78.57 67.58 79.8 67.58 81.04 67.58 82.28 67.58 83.52 67.58 84.75 67.58 85.99 67.58 87.23 67.58 88.47 67.58 89.7 67.58 90.94 67.58 92.18 67.58 93.42 67.58 94.65 67.58 95.89 67.58 97.13 67.58 98.37 67.58 99.61 67.58 100.84 67.58 102.08 67.58 103.32 67.58 104.56 67.58 105.79 67.58 107.03 67.58 108.27 67.58 109.51 67.58 110.74 67.58 111.98 67.58 113.22 67.58 114.46 67.58 115.7 67.58 116.93 67.58 118.17 67.58 119.41 67.58 120.65 67.58 121.88 67.58 123.12 67.58 124.36 67.58 125.6 67.58 126.83 67.58 128.07 67.58 129.31 67.58 130.55 67.58 131.79 67.58 133.02 67.58 134.26 67.58 135.5 67.58 136.74 67.58 137.97 67.58 139.21 67.58 140.45 67.58 141.69 67.58 142.92 67.58 144.16 67.58 145.4 67.58"/>
      </g>
      <g stroke-width="0.3" fill="#000000" fill-opacity="0.000" class="geometry" stroke-dasharray="none" stroke="#FF0000" id="img-4c460e9b-13">
        <path fill="none" d="M22.87,16.79 L 24.11 40.38 25.34 76.43 26.58 77.5 27.82 79.74 29.06 80.31 30.3 80.31 31.53 80.31 32.77 80.31 34.01 80.31 35.25 80.31 36.48 80.31 37.72 80.31 38.96 80.31 40.2 80.31 41.43 80.31 42.67 80.31 43.91 80.31 45.15 80.31 46.39 80.31 47.62 80.31 48.86 80.31 50.1 80.31 51.34 80.31 52.57 80.31 53.81 80.31 55.05 80.31 56.29 80.31 57.52 80.31 58.76 80.31 60 80.31 61.24 80.31 62.48 80.31 63.71 80.31 64.95 80.31 66.19 80.31 67.43 80.31 68.66 80.31 69.9 80.31 71.14 80.31 72.38 80.31 73.61 80.31 74.85 80.31 76.09 80.31 77.33 80.31 78.57 80.31 79.8 80.31 81.04 80.31 82.28 80.31 83.52 80.31 84.75 80.31 85.99 80.31 87.23 80.31 88.47 80.31 89.7 80.31 90.94 80.31 92.18 80.31 93.42 80.31 94.65 80.31 95.89 80.31 97.13 80.31 98.37 80.31 99.61 80.31 100.84 80.31 102.08 80.31 103.32 80.31 104.56 80.31 105.79 80.31 107.03 80.31 108.27 80.31 109.51 80.31 110.74 80.31 111.98 80.31 113.22 80.31 114.46 80.31 115.7 80.31 116.93 80.31 118.17 80.31 119.41 80.31 120.65 80.31 121.88 80.31 123.12 80.31 124.36 80.31 125.6 80.31 126.83 80.31 128.07 80.31 129.31 80.31 130.55 80.31 131.79 80.31 133.02 80.31 134.26 80.31 135.5 80.31 136.74 80.31 137.97 80.31 139.21 80.31 140.45 80.31 141.69 80.31 142.92 80.31 144.16 80.31 145.4 80.31"/>
      </g>
    </g>
  </g>
</g>
  <g class="guide ylabels" font-size="2.82" font-family="'PT Sans Caption','Helvetica Neue','Helvetica',sans-serif" fill="#6C606B" id="img-4c460e9b-14">
    <text x="18.63" y="80.32" text-anchor="end" dy="0.35em">0</text>
    <text x="18.63" y="61.99" text-anchor="end" dy="0.35em">200</text>
    <text x="18.63" y="43.66" text-anchor="end" dy="0.35em">400</text>
    <text x="18.63" y="25.33" text-anchor="end" dy="0.35em">600</text>
    <text x="18.63" y="7" text-anchor="end" dy="0.35em">800</text>
  </g>
  <g font-size="3.88" font-family="'PT Sans','Helvetica Neue','Helvetica',sans-serif" fill="#564A55" stroke="#000000" stroke-opacity="0.000" id="img-4c460e9b-15">
    <text x="8.81" y="41.66" text-anchor="middle" dy="0.35em" transform="rotate(-90, 8.81, 43.66)">obj</text>
  </g>
</g>
<defs>
  <clipPath id="img-4c460e9b-4">
  <path d="M19.63,5 L 147.4 5 147.4 82.32 19.63 82.32" />
</clipPath>
</defs>
</svg>
