<?xml version="1.0" encoding="UTF-8"?>
<svg xmlns="http://www.w3.org/2000/svg"
     xmlns:xlink="http://www.w3.org/1999/xlink"
     xmlns:gadfly="http://www.gadflyjl.org/ns"
     version="1.2"
     width="152.4mm" height="101.6mm" viewBox="0 0 152.4 101.6"
     stroke="none"
     fill="#000000"
     stroke-width="0.3"
     font-size="3.88"
>
<g class="plotroot xscalable yscalable" id="img-b4954242-1">
  <g font-size="3.88" font-family="'PT Sans','Helvetica Neue','Helvetica',sans-serif" fill="#564A55" stroke="#000000" stroke-opacity="0.000" id="img-b4954242-2">
    <text x="83.52" y="89.99" text-anchor="middle" dy="0.6em">iter</text>
  </g>
  <g class="guide xlabels" font-size="2.82" font-family="'PT Sans Caption','Helvetica Neue','Helvetica',sans-serif" fill="#6C606B" id="img-b4954242-3">
    <text x="21.63" y="83.32" text-anchor="middle" dy="0.6em">0</text>
    <text x="83.52" y="83.32" text-anchor="middle" dy="0.6em">50</text>
    <text x="145.4" y="83.32" text-anchor="middle" dy="0.6em">100</text>
  </g>
<g clip-path="url(#img-b4954242-4)">
  <g id="img-b4954242-5">
    <g pointer-events="visible" opacity="1" fill="#000000" fill-opacity="0.000" stroke="#000000" stroke-opacity="0.000" class="guide background" id="img-b4954242-6">
      <rect x="19.63" y="5" width="127.77" height="77.32"/>
    </g>
    <g class="guide ygridlines xfixed" stroke-dasharray="0.5,0.5" stroke-width="0.2" stroke="#D0D0E0" id="img-b4954242-7">
      <path fill="none" d="M19.63,80.32 L 147.4 80.32"/>
      <path fill="none" d="M19.63,61.99 L 147.4 61.99"/>
      <path fill="none" d="M19.63,43.66 L 147.4 43.66"/>
      <path fill="none" d="M19.63,25.33 L 147.4 25.33"/>
      <path fill="none" d="M19.63,7 L 147.4 7"/>
    </g>
    <g class="guide xgridlines yfixed" stroke-dasharray="0.5,0.5" stroke-width="0.2" stroke="#D0D0E0" id="img-b4954242-8">
      <path fill="none" d="M21.63,5 L 21.63 82.32"/>
      <path fill="none" d="M83.52,5 L 83.52 82.32"/>
      <path fill="none" d="M145.4,5 L 145.4 82.32"/>
    </g>
    <g class="plotpanel" id="img-b4954242-9">
      <g stroke-width="0.3" fill="#000000" fill-opacity="0.000" class="geometry" stroke-dasharray="none" stroke="#008000" id="img-b4954242-10">
        <path fill="none" d="M22.87,13.11 L 24.11 18.93 25.34 24.25 26.58 29.11 27.82 33.54 29.06 37.59 30.3 41.29 31.53 44.66 32.77 47.75 34.01 50.56 35.25 53.13 36.48 55.48 37.72 57.62 38.96 59.58 40.2 61.37 41.43 63.01 42.67 64.5 43.91 65.86 45.15 67.11 46.39 68.24 47.62 69.28 48.86 70.23 50.1 71.1 51.34 71.89 52.57 72.62 53.81 73.28 55.05 73.88 56.29 74.43 57.52 74.94 58.76 75.4 60 75.82 61.24 76.21 62.48 76.56 63.71 76.88 64.95 77.17 66.19 77.44 67.43 77.69 68.66 77.91 69.9 78.12 71.14 78.3 72.38 78.48 73.61 78.63 74.85 78.78 76.09 78.91 77.33 79.03 78.57 79.14 79.8 79.24 81.04 79.33 82.28 79.41 83.52 79.49 84.75 79.56 85.99 79.62 87.23 79.68 88.47 79.74 89.7 79.78 90.94 79.83 92.18 79.87 93.42 79.91 94.65 79.94 95.89 79.97 97.13 80 98.37 80.03 99.61 80.05 100.84 80.08 102.08 80.1 103.32 80.11 104.56 80.13 105.79 80.15 107.03 80.16 108.27 80.17 109.51 80.19 110.74 80.2 111.98 80.21 113.22 80.22 114.46 80.22 115.7 80.23 116.93 80.24 118.17 80.24 119.41 80.25 120.65 80.26 121.88 80.26 123.12 80.27 124.36 80.27 125.6 80.27 126.83 80.28 128.07 80.28 129.31 80.28 130.55 80.29 131.79 80.29 133.02 80.29 134.26 80.29 135.5 80.29 136.74 80.3 137.97 80.3 139.21 80.3 140.45 80.3 141.69 80.3 142.92 80.3 144.16 80.3 145.4 80.3"/>
      </g>
      <g stroke-width="0.3" fill="#000000" fill-opacity="0.000" class="geometry" stroke-dasharray="none" stroke="#FFA500" id="img-b4954242-11">
        <path fill="none" d="M22.87,13.11 L 24.11 41.76 25.34 58.09 26.58 67.43 27.82 72.79 29.06 75.9 30.3 77.7 31.53 78.75 32.77 79.37 34.01 79.73 35.25 79.95 36.48 80.09 37.72 80.17 38.96 80.22 40.2 80.25 41.43 80.27 42.67 80.29 43.91 80.3 45.15 80.3 46.39 80.31 47.62 80.31 48.86 80.31 50.1 80.31 51.34 80.31 52.57 80.31 53.81 80.31 55.05 80.31 56.29 80.31 57.52 80.31 58.76 80.31 60 80.31 61.24 80.31 62.48 80.31 63.71 80.31 64.95 80.31 66.19 80.31 67.43 80.31 68.66 80.31 69.9 80.31 71.14 80.31 72.38 80.31 73.61 80.31 74.85 80.31 76.09 80.31 77.33 80.31 78.57 80.31 79.8 80.31 81.04 80.31 82.28 80.31 83.52 80.31 84.75 80.31 85.99 80.31 87.23 80.31 88.47 80.31 89.7 80.31 90.94 80.31 92.18 80.31 93.42 80.31 94.65 80.31 95.89 80.31 97.13 80.31 98.37 80.31 99.61 80.31 100.84 80.31 102.08 80.31 103.32 80.31 104.56 80.31 105.79 80.31 107.03 80.31 108.27 80.31 109.51 80.31 110.74 80.31 111.98 80.31 113.22 80.31 114.46 80.31 115.7 80.31 116.93 80.31 118.17 80.31 119.41 80.31 120.65 80.31 121.88 80.31 123.12 80.31 124.36 80.31 125.6 80.31 126.83 80.31 128.07 80.31 129.31 80.31 130.55 80.31 131.79 80.31 133.02 80.31 134.26 80.31 135.5 80.31 136.74 80.31 137.97 80.31 139.21 80.31 140.45 80.31 141.69 80.31 142.92 80.31 144.16 80.31 145.4 80.31"/>
      </g>
      <g stroke-width="0.3" fill="#000000" fill-opacity="0.000" class="geometry" stroke-dasharray="none" stroke="#0000FF" id="img-b4954242-12">
        <path fill="none" d="M22.87,13.11 L 24.11 64.06 25.34 45.27 26.58 69.15 27.82 72.11 29.06 74.07 30.3 71.56 31.53 75.16 32.77 77.58 34.01 78.64 35.25 79.21 36.48 79.52 37.72 79.77 38.96 79.88 40.2 79.97 41.43 80.06 42.67 79.93 43.91 80 45.15 80.08 46.39 80.12 47.62 80.17 48.86 80.19 50.1 80.22 51.34 80.24 52.57 80.25 53.81 80.26 55.05 80.27 56.29 80.24 57.52 80.26 58.76 80.27 60 80.28 61.24 80.29 62.48 80.29 63.71 80.3 64.95 80.3 66.19 80.3 67.43 80.3 68.66 80.3 69.9 80.3 71.14 80.3 72.38 80.31 73.61 80.31 74.85 80.31 76.09 80.31 77.33 80.31 78.57 80.31 79.8 80.31 81.04 80.31 82.28 80.31 83.52 80.31 84.75 80.31 85.99 80.31 87.23 80.31 88.47 80.31 89.7 80.31 90.94 80.31 92.18 80.31 93.42 80.31 94.65 80.31 95.89 80.31 97.13 80.31 98.37 80.31 99.61 80.31 100.84 80.31 102.08 80.31 103.32 80.31 104.56 80.31 105.79 80.31 107.03 80.31 108.27 80.31 109.51 80.31 110.74 80.31 111.98 80.31 113.22 80.31 114.46 80.31 115.7 80.31 116.93 80.31 118.17 80.31 119.41 80.31 120.65 80.31 121.88 80.31 123.12 80.31 124.36 80.31 125.6 80.31 126.83 80.31 128.07 80.31 129.31 80.31 130.55 80.31 131.79 80.31 133.02 80.31 134.26 80.31 135.5 80.31 136.74 80.31 137.97 80.31 139.21 80.31 140.45 80.31 141.69 80.31 142.92 80.31 144.16 80.31 145.4 80.31"/>
      </g>
      <g stroke-width="0.3" fill="#000000" fill-opacity="0.000" class="geometry" stroke-dasharray="none" stroke="#FF0000" id="img-b4954242-13">
        <path fill="none" d="M22.87,13.11 L 24.11 72.65 25.34 78.99 26.58 78.72 27.82 79.58 29.06 80.3 30.3 80.31 31.53 80.31 32.77 80.31 34.01 80.31 35.25 80.31 36.48 80.31 37.72 80.31 38.96 80.31 40.2 80.31 41.43 80.31 42.67 80.31 43.91 80.31 45.15 80.31 46.39 80.31 47.62 80.31 48.86 80.31 50.1 80.31 51.34 80.31 52.57 80.31 53.81 80.31 55.05 80.31 56.29 80.31 57.52 80.31 58.76 80.31 60 80.31 61.24 80.31 62.48 80.31 63.71 80.31 64.95 80.31 66.19 80.31 67.43 80.31 68.66 80.31 69.9 80.31 71.14 80.31 72.38 80.31 73.61 80.31 74.85 80.31 76.09 80.31 77.33 80.31 78.57 80.31 79.8 80.31 81.04 80.31 82.28 80.31 83.52 80.31 84.75 80.31 85.99 80.31 87.23 80.31 88.47 80.31 89.7 80.31 90.94 80.31 92.18 80.31 93.42 80.31 94.65 80.31 95.89 80.31 97.13 80.31 98.37 80.31 99.61 80.31 100.84 80.31 102.08 80.31 103.32 80.31 104.56 80.31 105.79 80.31 107.03 80.31 108.27 80.31 109.51 80.31 110.74 80.31 111.98 80.31 113.22 80.31 114.46 80.31 115.7 80.31 116.93 80.31 118.17 80.31 119.41 80.31 120.65 80.31 121.88 80.31 123.12 80.31 124.36 80.31 125.6 80.31 126.83 80.31 128.07 80.31 129.31 80.31 130.55 80.31 131.79 80.31 133.02 80.31 134.26 80.31 135.5 80.31 136.74 80.31 137.97 80.31 139.21 80.31 140.45 80.31 141.69 80.31 142.92 80.31 144.16 80.31 145.4 80.31"/>
      </g>
    </g>
  </g>
</g>
  <g class="guide ylabels" font-size="2.82" font-family="'PT Sans Caption','Helvetica Neue','Helvetica',sans-serif" fill="#6C606B" id="img-b4954242-14">
    <text x="18.63" y="80.32" text-anchor="end" dy="0.35em">0</text>
    <text x="18.63" y="61.99" text-anchor="end" dy="0.35em">50</text>
    <text x="18.63" y="43.66" text-anchor="end" dy="0.35em">100</text>
    <text x="18.63" y="25.33" text-anchor="end" dy="0.35em">150</text>
    <text x="18.63" y="7" text-anchor="end" dy="0.35em">200</text>
  </g>
  <g font-size="3.88" font-family="'PT Sans','Helvetica Neue','Helvetica',sans-serif" fill="#564A55" stroke="#000000" stroke-opacity="0.000" id="img-b4954242-15">
    <text x="8.81" y="41.66" text-anchor="middle" dy="0.35em" transform="rotate(-90, 8.81, 43.66)">obj</text>
  </g>
</g>
<defs>
  <clipPath id="img-b4954242-4">
  <path d="M19.63,5 L 147.4 5 147.4 82.32 19.63 82.32" />
</clipPath>
</defs>
</svg>
